<svg xmlns="http://www.w3.org/2000/svg" viewBox="0 0 1200 500" role="img" aria-label="Developer ID and dashboard for Keerti">
<defs><linearGradient id="i" x1="0" x2="1"><stop stop-color="#22d3ee"/><stop offset=".5" stop-color="#a78bfa"/><stop offset="1" stop-color="#f472b6"/></linearGradient></defs>
<rect width="1200" height="500" rx="28" fill="#0d0e16"/><rect x="28" y="28" width="1144" height="444" rx="24" fill="none" stroke="url(#i)" stroke-opacity=".5"/>
<g transform="translate(70 85) rotate(-3 220 160)"><rect width="420" height="300" rx="22" fill="#111827" stroke="url(#i)" stroke-width="2"/><rect x="25" y="25" width="370" height="62" rx="14" fill="#0d0e16"/><text x="42" y="51" font-family="monospace" font-size="12" fill="#22d3ee">DEVELOPER ID // 2005</text><text x="42" y="72" font-family="system-ui" font-size="13" fill="#64748b">KEERTI2005</text><circle cx="100" cy="150" r="52" fill="#f1c7a8"/><path d="M48 146 Q100 75 152 146 Q125 110 100 115 Q75 110 48 146" fill="#171717"/><rect x="175" y="116" width="190" height="20" rx="10" fill="#1e293b"/><rect x="175" y="151" width="150" height="12" rx="6" fill="#334155"/><rect x="175" y="177" width="170" height="12" rx="6" fill="#334155"/><rect x="25" y="235" width="370" height="36" rx="10" fill="#0d0e16"/><text x="42" y="258" font-family="monospace" font-size="12" fill="#94a3b8">CSE STUDENT • LUCKNOW, INDIA</text><path d="M25 220H395" stroke="#22d3ee" stroke-opacity=".5"/></g>
<g transform="translate(565 75)"><text x="0" y="0" font-family="system-ui" font-size="28" font-weight="700" fill="#fff">Developer Dashboard</text><g transform="translate(0 35)"><rect width="175" height="85" rx="16" fill="#111827" stroke="#334155"/><text x="18" y="30" font-family="monospace" font-size="12" fill="#64748b">PROJECTS</text><text x="18" y="62" font-family="system-ui" font-size="28" font-weight="700" fill="#22d3ee">BUILDING</text><rect x="195" width="175" height="85" rx="16" fill="#111827" stroke="#334155"/><text x="213" y="30" font-family="monospace" font-size="12" fill="#64748b">FOCUS</text><text x="213" y="62" font-family="system-ui" font-size="24" font-weight="700" fill="#a78bfa">AI + WEB</text></g>
<text x="0" y="155" font-family="system-ui" font-size="16" fill="#94a3b8">LEARNING MOMENTUM</text><g transform="translate(0 175)" fill="url(#i)"><rect x="0" y="100" width="44" height="55" rx="6"><animate attributeName="height" values="30;90;55" dur="3s" repeatCount="indefinite"/><animate attributeName="y" values="125;65;100" dur="3s" repeatCount="indefinite"/></rect><rect x="65" y="75" width="44" height="80" rx="6"/><rect x="130" y="45" width="44" height="110" rx="6"/><rect x="195" y="85" width="44" height="70" rx="6"/><rect x="260" y="30" width="44" height="125" rx="6"/></g><g transform="translate(0 360)"><rect width="370" height="48" rx="14" fill="#111827" stroke="#334155"/><text x="18" y="30" font-family="monospace" font-size="13" fill="#e2e8f0">NOW → Learning AI • Building • Shipping</text></g></g></svg>
